<?xml version="1.0" encoding="iso-8859-1"?>
<!-- Generator: Adobe Illustrator 19.0.0, SVG Export Plug-In . SVG Version: 6.00 Build 0)  -->
<svg version="1.1" id="Capa_1" xmlns="http://www.w3.org/2000/svg" xmlns:xlink="http://www.w3.org/1999/xlink" x="0px" y="0px"
	 viewBox="0 0 512 512" style="enable-background:new 0 0 512 512;" xml:space="preserve">
<path style="fill:#FDE27C;" d="M470.708,170.76H41.293v293.414c0,5.557,4.505,10.062,10.062,10.062h409.293
	c5.557,0,10.062-4.505,10.062-10.062V170.76H470.708z"/>
<path style="fill:#F7B96D;" d="M470.708,419.995H41.293v44.179c0,5.557,4.505,10.062,10.062,10.062h409.293
	c5.557,0,10.062-4.505,10.062-10.062v-44.179H470.708z"/>
<path style="fill:#EEF0F1;" d="M396.516,371.762h-92.829c-9.917,0-17.956-8.039-17.956-17.956v-48.887
	c0-9.917,8.04-17.956,17.956-17.956h92.829c9.917,0,17.956,8.039,17.956,17.956v48.887
	C414.472,363.722,406.433,371.762,396.516,371.762z"/>
<path style="fill:#609AD6;" d="M396.517,382.925h-92.829c-16.056,0-29.119-13.063-29.119-29.119v-48.887
	c0-16.056,13.063-29.119,29.119-29.119h92.829c16.055,0,29.119,13.063,29.119,29.119v48.887
	C425.636,369.862,412.572,382.925,396.517,382.925z M306.626,300.102c-3.509,0-6.364,2.855-6.364,6.364v45.792
	c0,3.509,2.855,6.364,6.364,6.364h86.953c3.509,0,6.364-2.855,6.364-6.364v-45.792c0-3.509-2.855-6.364-6.364-6.364H306.626z"/>
<path style="fill:#5B6EA2;" d="M203.761,286.962h-80.394c-9.917,0-17.956,8.039-17.956,17.956v169.317h116.307V304.918
	C221.718,295.002,213.678,286.962,203.761,286.962z"/>
<path style="fill:#EEF0F1;" d="M189.329,326.952h-51.528c-2.829,0-5.123,2.294-5.123,5.123v23.69c0,2.829,2.294,5.123,5.123,5.123
	h51.528c2.829,0,5.123-2.294,5.123-5.123v-23.69C194.451,329.245,192.158,326.952,189.329,326.952z"/>
<circle style="fill:#FDE27C;" cx="129.366" cy="400.266" r="7.304"/>
<path style="opacity:0.1;enable-background:new    ;" d="M41.293,170.76v293.414c0,5.557,4.505,10.062,10.062,10.062h276.317
	C156.465,448.261,137.976,276.893,141.524,170.76H41.293z"/>
<path style="fill:#EC7887;" d="M260.314,234.802h-8.627c-27.669,0-49.195-24.051-46.138-51.551l16.169-145.487h68.566
	l16.169,145.487C309.509,210.751,287.983,234.802,260.314,234.802z"/>
<path style="fill:#EEF0F1;" d="M158.27,234.802h-6.401c-31.688,0-54.062-31.046-44.039-61.107l45.321-135.931h68.566
	l-17.309,155.743C201.795,217.015,181.924,234.802,158.27,234.802z"/>
<path style="fill:#EC7887;" d="M53.999,234.802L53.999,234.802c-35.399,0-57.773-38.03-40.579-68.973L74.178,56.493
	c6.424-11.561,18.609-18.729,31.835-18.729h47.139L98.038,203.062C91.718,222.017,73.979,234.802,53.999,234.802z"/>
<path style="fill:#EEF0F1;" d="M353.731,234.802h6.401c31.688,0,54.062-31.046,44.039-61.107L358.849,37.764h-68.566l17.309,155.743
	C310.206,217.015,330.077,234.802,353.731,234.802z"/>
<path style="fill:#EC7887;" d="M458.002,234.802L458.002,234.802c35.399,0,57.773-38.03,40.579-68.973L437.823,56.493
	c-6.424-11.561-18.609-18.729-31.835-18.729h-47.139l55.113,165.298C420.283,222.017,438.021,234.802,458.002,234.802z"/>
<path style="opacity:0.1;enable-background:new    ;" d="M205.548,183.251c-3.057,27.5,18.469,51.55,46.138,51.55h8.627
	c27.669,0,49.195-24.051,46.138-51.55l-1.388-12.491h-98.129L205.548,183.251z"/>
<path style="opacity:0.1;enable-background:new    ;" d="M108.808,170.76l-0.979,2.935c-10.023,30.061,12.352,61.106,44.039,61.106
	h6.401c23.654,0,43.525-17.785,46.138-41.295l2.528-22.746H108.808z"/>
<path style="opacity:0.1;enable-background:new    ;" d="M11.059,170.76c-12.423,29.905,9.4,64.042,42.939,64.042l0,0
	c19.98,0,37.72-12.785,44.039-31.739l10.77-32.302L11.059,170.76L11.059,170.76z"/>
<path style="opacity:0.1;enable-background:new    ;" d="M403.192,170.76l0.978,2.935c10.023,30.061-12.352,61.106-44.039,61.106
	h-6.401c-23.654,0-43.525-17.785-46.138-41.295l-2.528-22.746H403.192z"/>
<path style="opacity:0.1;enable-background:new    ;" d="M500.942,170.76c12.423,29.905-9.401,64.041-42.94,64.041l0,0
	c-19.98,0-37.72-12.785-44.039-31.739l-10.77-32.302L500.942,170.76L500.942,170.76z"/>
<path d="M396.516,390.424c20.191,0,36.619-16.427,36.619-36.619v-48.887c0-20.191-16.427-36.619-36.619-36.619h-92.829
	c-20.191,0-36.619,16.427-36.619,36.619v48.887c0,20.191,16.427,36.619,36.619,36.619H396.516z M282.068,353.806v-48.887
	c0-11.921,9.699-21.619,21.619-21.619h92.829c11.921,0,21.619,9.699,21.619,21.619v48.887c0,11.921-9.699,21.619-21.619,21.619
	h-92.829C291.766,375.425,282.068,365.726,282.068,353.806z M393.579,366.122c7.645,0,13.863-6.219,13.863-13.864v-45.792
	c0-7.645-6.219-13.864-13.863-13.864h-86.953c-7.645,0-13.864,6.219-13.864,13.864v45.792c0,7.645,6.22,13.864,13.864,13.864
	H393.579z M307.762,307.602h84.681v43.52h-84.681V307.602z M505.136,162.186l-23.525-42.334c-2.012-3.62-6.575-4.924-10.199-2.913
	c-3.62,2.012-4.924,6.578-2.912,10.199l23.525,42.334c6.771,12.184,6.593,26.63-0.476,38.644
	c-7.067,12.014-19.608,19.186-33.548,19.186c-16.778,0-31.617-10.695-36.925-26.611L369.256,45.264h36.733
	c10.495,0,20.181,5.699,25.279,14.872l20.4,36.712c2.012,3.62,6.579,4.925,10.198,2.913c3.621-2.012,4.925-6.578,2.913-10.199
	l-20.4-36.713c-7.743-13.932-22.453-22.585-38.391-22.585H106.013c-15.937,0-30.647,8.654-38.391,22.586L6.864,162.187
	c-9.38,16.878-9.134,36.892,0.658,53.535c6.197,10.533,15.431,18.374,26.27,22.716v127.185c0,4.142,3.357,7.5,7.5,7.5
	s7.5-3.358,7.5-7.5V242.056c1.717,0.161,3.453,0.246,5.206,0.246c21.212,0,40.181-12.343,48.924-31.259
	c1.436,3.067,3.162,6.036,5.201,8.864c10.258,14.232,26.202,22.395,43.745,22.395h6.4c19.845,0,37.36-10.731,46.723-26.972
	c1.843,3.195,4.017,6.22,6.515,9.011c10.217,11.415,24.861,17.961,40.181,17.961h8.627c15.318,0,29.964-6.547,40.181-17.961
	c2.498-2.791,4.672-5.816,6.515-9.011c9.364,16.241,26.878,26.972,46.723,26.972h6.4c17.543,0,33.488-8.163,43.745-22.395
	c2.038-2.828,3.764-5.797,5.201-8.864c8.744,18.916,27.712,31.259,48.925,31.259c1.753,0,3.489-0.084,5.206-0.246v170.439H229.217
	V304.918c0-14.036-11.42-25.456-25.456-25.456h-80.393c-14.037,0-25.456,11.42-25.456,25.456v107.576H48.794v-12.232
	c0-4.142-3.357-7.5-7.5-7.5s-7.5,3.358-7.5,7.5v63.911c0,9.684,7.878,17.561,17.561,17.561h409.293
	c9.684,0,17.56-7.879,17.56-17.561V238.438c10.839-4.342,20.074-12.184,26.27-22.716
	C514.269,199.078,514.515,179.065,505.136,162.186z M90.923,200.69c-5.308,15.917-20.146,26.612-36.925,26.612
	c-13.939,0-26.48-7.173-33.548-19.186c-7.068-12.014-7.246-26.46-0.476-38.644L80.733,60.137
	c5.099-9.174,14.784-14.872,25.279-14.872h36.733L90.923,200.69z M198.095,182.423c-0.28,2.516-0.363,5.032-0.288,7.534
	c-0.442,0.822-0.742,1.738-0.851,2.722c-2.194,19.739-18.825,34.624-38.686,34.624h-6.4c-12.664,0-24.173-5.893-31.577-16.166
	c-7.404-10.273-9.354-23.055-5.348-35.069c0-0.001,0-0.002,0.001-0.002l43.611-130.801h54.781L198.095,182.423z M289.317,214.336
	c-7.375,8.24-17.946,12.966-29.004,12.966h-8.627c-11.058,0-21.629-4.726-29.004-12.966c-7.374-8.239-10.903-19.267-9.682-30.257
	l15.428-138.815h55.141l15.428,138.815C300.221,195.069,296.691,206.098,289.317,214.336z M391.709,211.136
	c-7.404,10.274-18.913,16.166-31.577,16.166h-6.4c-19.859,0-36.491-14.884-38.685-34.624c-0.11-0.985-0.409-1.9-0.851-2.722
	c0.074-2.501-0.008-5.017-0.288-7.534L298.663,45.264h54.781l43.612,130.803C401.061,188.08,399.112,200.863,391.709,211.136z
	 M97.911,466.736H51.355c-1.412,0-2.562-1.15-2.562-2.562v-36.68h49.118V466.736z M214.218,466.736H112.912V304.918
	c0-5.766,4.691-10.457,10.457-10.457h80.393c5.766,0,10.457,4.691,10.457,10.457V466.736z M463.208,464.174
	c0,1.413-1.149,2.562-2.561,2.562h-231.43v-39.242h233.991V464.174z M189.329,319.452H137.8c-6.96,0-12.622,5.663-12.622,12.622
	v23.69c0,6.96,5.662,12.622,12.622,12.622h51.529c6.96,0,12.622-5.663,12.622-12.622v-23.69
	C201.95,325.115,196.289,319.452,189.329,319.452z M186.951,353.388h-46.773v-18.935h46.773V353.388z"/>
<g>
</g>
<g>
</g>
<g>
</g>
<g>
</g>
<g>
</g>
<g>
</g>
<g>
</g>
<g>
</g>
<g>
</g>
<g>
</g>
<g>
</g>
<g>
</g>
<g>
</g>
<g>
</g>
<g>
</g>
</svg>
